<?xml version="1.0" encoding="UTF-8"?>
<svg xmlns="http://www.w3.org/2000/svg" xmlns:xlink="http://www.w3.org/1999/xlink" width="265.32pt" height="313.96pt" viewBox="0 0 265.32 313.96" version="1.1">
<g id="surface1">
<path style=" stroke:none;fill-rule:nonzero;fill:rgb(0%,54.499817%,32.199097%);fill-opacity:1;" d="M 208.203125 207.460938 L 110.9375 244.808594 L 110.933594 222.113281 L 179.9375 195.472656 Z M 66.699219 215.375 L 66.699219 167.851563 L 87.335938 167.851563 L 87.335938 207.4375 Z M 22.109375 232.523438 L 22.109375 79.589844 L 44.957031 89.035156 L 44.957031 223.738281 Z M 87.335938 106.558594 L 87.335938 146.109375 L 66.699219 146.109375 L 66.699219 98.023438 Z M 110.917969 72.226563 L 208.203125 113.496094 L 179.828125 124.390625 L 110.925781 93.667969 Z M 110.929688 116.3125 L 154.230469 134.21875 L 110.9375 150.835938 Z M 110.917969 166.191406 L 150.699219 183.066406 L 110.925781 198.363281 Z M 213.734375 158.820313 L 176.128906 173.285156 L 141.503906 158.820313 L 179.105469 144.503906 Z M 265.316406 162.503906 L 203.824219 135.089844 L 260.527344 113.496094 L 87.335938 40.164063 L 87.335938 83.152344 L 66.699219 73.949219 L 66.699219 21.929688 L 171.167969 21.929688 L 171.167969 0.191406 L 66.699219 0.191406 L 66.699219 0 L 44.957031 0 L 44.957031 64.257813 L 0 44.214844 L 0 264.945313 L 44.957031 247.589844 L 44.957031 313.960938 L 66.699219 313.960938 L 66.699219 239.195313 L 87.335938 231.226563 L 87.335938 274.898438 L 257.953125 207.460938 L 205.5625 185.578125 "/>
</g>
</svg>
